<svg width="64" height="64" viewBox="0 0 64 64" fill="none" xmlns="http://www.w3.org/2000/svg">
<g clip-path="url(#clip0_1387_188)">
<path fill-rule="evenodd" clip-rule="evenodd" d="M28.8768 0.369565C34.1378 0.405846 39.2856 1.9012 43.7473 4.68923C44.4885 5.1525 45.0154 5.89124 45.2119 6.74296C45.4085 7.59467 45.2586 8.48957 44.7954 9.2308C44.566 9.59782 44.2665 9.91607 43.9142 10.1674C43.5618 10.4187 43.1633 10.5981 42.7416 10.6954C41.8899 10.892 40.995 10.7421 40.2538 10.2789C36.8237 8.13383 32.8651 6.98371 28.8196 6.95672C25.8971 6.9268 22.9982 7.48259 20.294 8.5913C17.5898 9.7 15.135 11.3392 13.0746 13.412L16.6648 13.4428C17.5389 13.4504 18.3742 13.8049 18.9869 14.4283C19.5996 15.0517 19.9396 15.893 19.932 16.7671C19.9245 17.6412 19.57 18.4765 18.9465 19.0892C18.3231 19.702 17.4818 20.0419 16.6077 20.0344L5.63496 19.9377C4.76162 19.9296 3.92722 19.5751 3.31502 18.9522C2.70283 18.3293 2.36292 17.4889 2.36994 16.6155L2.46662 5.62962C2.47419 4.75553 2.82869 3.92024 3.45213 3.30752C3.76082 3.00413 4.12625 2.76452 4.52754 2.60235C4.92884 2.44019 5.35815 2.35866 5.79096 2.36241C6.22376 2.36616 6.6516 2.45512 7.05002 2.62422C7.44845 2.79331 7.80967 3.03922 8.11306 3.34792C8.41645 3.65661 8.65606 4.02204 8.81822 4.42334C8.98039 4.82463 9.06192 5.25394 9.05817 5.68675L9.0362 8.14759C14.3937 3.08462 21.5058 0.296493 28.8768 0.369565ZM0.0760839 27.9486C-0.108391 33.2061 1.16942 38.4116 3.76735 42.9861C7.38944 49.4082 13.3613 54.1749 20.4264 56.2835L18.2863 57.4919C17.9095 57.7052 17.5784 57.9905 17.3118 58.3317C17.0453 58.6729 16.8485 59.0633 16.7329 59.4805C16.6172 59.8978 16.5848 60.3337 16.6376 60.7635C16.6904 61.1932 16.8273 61.6083 17.0405 61.9852C17.4712 62.7462 18.1865 63.305 19.0291 63.5386C19.4464 63.6543 19.8823 63.6867 20.3121 63.6339C20.7418 63.5811 21.1569 63.4442 21.5338 63.231L31.0959 57.8215C31.8563 57.3907 32.4144 56.6757 32.6476 55.8335C32.8808 54.9913 32.77 54.091 32.3395 53.3305L26.9345 43.7859C26.4895 43.055 25.7776 42.5258 24.9495 42.3102C24.1214 42.0947 23.2419 42.2097 22.497 42.631C21.7521 43.0522 21.2003 43.7466 20.9582 44.5674C20.7161 45.3882 20.8028 46.2709 21.1998 47.0289L22.9707 50.1577C20.1446 49.4092 17.497 48.1019 15.1845 46.3132C12.8719 44.5244 10.9412 42.2904 9.50639 39.7431C7.50702 36.2282 6.52275 32.2272 6.66324 28.1859C6.68262 27.751 6.61564 27.3165 6.46617 26.9076C6.31669 26.4987 6.08769 26.1235 5.79239 25.8036C5.49708 25.4837 5.14132 25.2255 4.74566 25.0439C4.35 24.8623 3.92227 24.7608 3.48719 24.7455C3.0521 24.7301 2.61828 24.8011 2.21078 24.9543C1.80328 25.1075 1.43017 25.3399 1.11301 25.6382C0.795852 25.9364 0.54092 26.2945 0.362943 26.6918C0.184965 27.0892 0.0874683 27.5134 0.0760839 27.9486ZM42.0599 54.139C46.7057 51.6709 50.5756 47.9622 53.2391 43.4256C56.988 37.0772 58.1285 29.5223 56.4206 22.3502L58.5431 23.5982C59.2966 24.0416 60.1954 24.1676 61.0417 23.9484C61.8881 23.7292 62.6127 23.1828 63.0561 22.4293C63.4996 21.6758 63.6256 20.777 63.4064 19.9307C63.1872 19.0843 62.6407 18.3597 61.8872 17.9163L52.4218 12.3442C51.6689 11.9002 50.7704 11.7734 49.9241 11.9918C49.0778 12.2102 48.3528 12.7558 47.9088 13.5087L42.3411 22.961C41.9037 23.7136 41.7818 24.6086 42.002 25.4507C42.2221 26.2929 42.7665 27.0137 43.5163 27.4559C44.266 27.8981 45.1603 28.0257 46.0038 27.811C46.8473 27.5962 47.5716 27.0564 48.0186 26.3095L49.8423 23.2115C50.6071 26.0328 50.799 28.9788 50.4065 31.8755C50.014 34.7722 49.0452 37.5609 47.5572 40.0771C45.5123 43.5676 42.5381 46.4216 38.9662 48.3209C38.5729 48.5176 38.2229 48.791 37.9369 49.125C37.6509 49.459 37.4346 49.8469 37.3008 50.2658C37.167 50.6846 37.1183 51.1261 37.1577 51.5641C37.1972 52.002 37.3238 52.4277 37.5303 52.816C37.7367 53.2042 38.0188 53.5473 38.3599 53.8248C38.7009 54.1024 39.0941 54.3089 39.5162 54.4322C39.9383 54.5555 40.3808 54.5931 40.8177 54.5428C41.2545 54.4924 41.6769 54.3551 42.0599 54.139ZM24.4648 16.91C24.7821 16.001 25.3743 15.2132 26.1593 14.6558C26.9443 14.0983 27.8832 13.7989 28.846 13.7989C29.8088 13.7989 30.7477 14.0983 31.5327 14.6558C32.3177 15.2132 32.9099 16.001 33.2272 16.91L39.599 35.1114C39.888 35.9366 39.8375 36.8427 39.4584 37.6306C39.0793 38.4184 38.4028 39.0234 37.5776 39.3124C36.7525 39.6015 35.8463 39.5509 35.0584 39.1718C34.2706 38.7927 33.6656 38.1162 33.3766 37.291L32.8009 35.6256H24.8911L24.311 37.291C24.022 38.1162 23.417 38.7927 22.6292 39.1718C21.8413 39.5509 20.9351 39.6015 20.11 39.3124C19.2849 39.0234 18.6083 38.4184 18.2292 37.6306C17.8501 36.8427 17.7996 35.9366 18.0886 35.1114L24.4648 16.91ZM28.846 24.3408L30.4895 29.034H27.2025L28.846 24.3408Z" fill="url(#paint0_linear_1387_188)"/>
</g>
<defs>
<linearGradient id="paint0_linear_1387_188" x1="31.7851" y1="0.368164" x2="31.7851" y2="63.6585" gradientUnits="userSpaceOnUse">
<stop stop-color="white"/>
<stop offset="1" stop-color="#534FD3"/>
</linearGradient>
<clipPath id="clip0_1387_188">
<rect width="64" height="64" fill="white"/>
</clipPath>
</defs>
</svg>
