<svg width="31" height="30" viewBox="0 0 31 30" fill="none" xmlns="http://www.w3.org/2000/svg">
<path d="M11.8758 11.3109C11.8758 9.63281 10.7344 9.63281 10.7344 9.63281H6.04688V13.2305H10.4437C11.2031 13.2305 11.8758 12.9867 11.8758 11.3109ZM10.7344 15.7172H6.04688V20.025H10.5234C11.1961 20.0063 12.4406 19.7906 12.4406 17.9297C12.4336 15.7031 10.7344 15.7172 10.7344 15.7172ZM22.7508 13.2305C20.2594 13.2305 19.9125 15.7148 19.9125 15.7148H25.2094C25.2094 15.7148 25.2422 13.2305 22.7508 13.2305Z" fill="white"/>
<path d="M26.5758 0.505859H4.42734C3.52043 0.505859 2.65066 0.86613 2.00937 1.50742C1.36808 2.1487 1.00781 3.01847 1.00781 3.92539V26.0715C1.00781 26.9784 1.36808 27.8482 2.00937 28.4895C2.65066 29.1307 3.52043 29.491 4.42734 29.491H26.5734C27.4804 29.491 28.3501 29.1307 28.9914 28.4895C29.6327 27.8482 29.993 26.9784 29.993 26.0715V3.92539C29.993 3.01888 29.633 2.14946 28.9922 1.50825C28.3515 0.867026 27.4823 0.506481 26.5758 0.505859ZM19.2188 7.71523H25.8703V9.70273H19.2188V7.71523ZM15.8555 18.1309C15.8555 23.0527 10.7344 22.891 10.7344 22.891H2.34375V6.76602H10.7344C13.2844 6.76602 15.2977 8.17227 15.2977 11.0598C15.2977 13.9473 12.8367 14.1277 12.8367 14.1277C16.0805 14.1277 15.8555 18.1309 15.8555 18.1309ZM28.2984 17.8684H19.9547C19.9547 20.8637 22.793 20.6809 22.793 20.6809C25.4719 20.6809 25.3711 18.9465 25.3711 18.9465H28.2047C28.2047 23.5496 22.6875 23.2332 22.6875 23.2332C16.0664 23.2332 16.493 17.0691 16.493 17.0691C16.493 17.0691 16.493 10.8746 22.6875 10.8746C29.2148 10.8699 28.3008 17.8684 28.3008 17.8684H28.2984Z" fill="white"/>
</svg>
