<svg width="20" height="20" viewBox="0 0 20 20" fill="none" xmlns="http://www.w3.org/2000/svg">
<path fill-rule="evenodd" clip-rule="evenodd" d="M6.91584 2.55325C6.36803 2.00545 5.54123 1.84777 4.83027 2.1555C2.30974 3.24647 1.29046 5.82988 2.56853 7.86425C3.54862 9.42431 4.92649 11.2561 6.83941 13.1691C8.75234 15.082 10.5842 16.4599 12.1442 17.4399C14.1786 18.718 16.762 17.6987 17.853 15.1782C18.1607 14.4672 18.003 13.6404 17.4552 13.0926L17.1106 12.748C16.3125 11.9499 15.0912 11.7564 14.0854 12.2688L12.8054 12.9209C11.661 13.5039 10.2714 13.2837 9.3632 12.3755L7.63295 10.6453C6.72478 9.7371 6.50463 8.34745 7.08763 7.20304L7.7397 5.92304C8.25206 4.91729 8.05859 3.696 7.26045 2.89786L7.96755 2.19076L7.26045 2.89786L6.91584 2.55325ZM8.33005 1.13904L7.64108 1.82802L8.33005 1.13904L8.67466 1.48365C10.0854 2.89443 10.4274 5.05314 9.52178 6.83089L8.86971 8.11089C8.67999 8.4833 8.75163 8.93552 9.04716 9.23106L10.7774 10.9613C11.073 11.2569 11.5252 11.3285 11.8976 11.1388L13.1776 10.4867C14.9553 9.58105 17.1141 9.92304 18.5248 11.3338L18.8694 11.6784C19.9974 12.8064 20.3221 14.5088 19.6884 15.9727C18.2522 19.2909 14.4332 21.2399 11.0803 19.1335C9.40172 18.0789 7.45081 16.6089 5.4252 14.5833C3.39959 12.5577 1.92954 10.6068 0.875004 8.92819C-1.23142 5.57528 0.71761 1.75629 4.03582 0.320054C5.49972 -0.313574 7.20211 0.0111032 8.33005 1.13904Z" fill="white"/>
</svg>
