<svg width="72" height="64" viewBox="0 0 72 64" fill="none" xmlns="http://www.w3.org/2000/svg">
<g clip-path="url(#clip0_1387_193)">
<path d="M42.4008 52.208C38.891 50.5358 35.8737 47.9837 33.6424 44.8H7.20078V6.4H64.8008V13.6448C67.3934 15.4635 69.574 17.8077 71.2008 20.5248V6.4C71.1957 4.70417 70.5198 3.07925 69.3207 1.88011C68.1215 0.680975 66.4966 0.00506473 64.8008 0H7.20078C5.50495 0.00506473 3.88003 0.680975 2.68089 1.88011C1.48176 3.07925 0.805846 4.70417 0.800781 6.4V44.8C0.805846 46.4958 1.48176 48.1208 2.68089 49.3199C3.88003 50.519 5.50495 51.1949 7.20078 51.2H29.6008V57.6H23.2008V64H48.8008V57.6H42.4008V52.208Z" fill="url(#paint0_linear_1387_193)"/>
<path d="M52.0008 12.8C48.2034 12.8 44.4913 13.9261 41.3338 16.0358C38.1764 18.1456 35.7155 21.1442 34.2623 24.6525C32.8091 28.1609 32.4289 32.0213 33.1697 35.7458C33.9105 39.4702 35.7392 42.8913 38.4243 45.5765C41.1095 48.2617 44.5306 50.0903 48.2551 50.8311C51.9795 51.572 55.84 51.1917 59.3483 49.7385C62.8567 48.2853 65.8553 45.8244 67.965 42.667C70.0747 39.5096 71.2008 35.7975 71.2008 32C71.2008 26.9079 69.1779 22.0243 65.5772 18.4236C61.9765 14.8229 57.0929 12.8 52.0008 12.8ZM52.0008 44.8C49.4692 44.8 46.9944 44.0493 44.8895 42.6429C42.7845 41.2364 41.1439 39.2373 40.1751 36.8984C39.2063 34.5595 38.9528 31.9859 39.4467 29.5029C39.9406 27.0199 41.1597 24.7392 42.9498 22.9491C44.7399 21.159 47.0207 19.9399 49.5036 19.446C51.9866 18.9521 54.5602 19.2056 56.8991 20.1744C59.238 21.1432 61.2371 22.7838 62.6436 24.8888C64.0501 26.9937 64.8008 29.4684 64.8008 32C64.7966 35.3935 63.4466 38.6468 61.0471 41.0463C58.6475 43.4459 55.3943 44.7958 52.0008 44.8Z" fill="url(#paint1_linear_1387_193)"/>
<path d="M52.0008 35.2C53.7681 35.2 55.2008 33.7674 55.2008 32C55.2008 30.2327 53.7681 28.8 52.0008 28.8C50.2335 28.8 48.8008 30.2327 48.8008 32C48.8008 33.7674 50.2335 35.2 52.0008 35.2Z" fill="url(#paint2_linear_1387_193)"/>
</g>
<defs>
<linearGradient id="paint0_linear_1387_193" x1="36.0008" y1="0" x2="36.0008" y2="64" gradientUnits="userSpaceOnUse">
<stop stop-color="white"/>
<stop offset="1" stop-color="#534FD3"/>
</linearGradient>
<linearGradient id="paint1_linear_1387_193" x1="52.0008" y1="12.8" x2="52.0008" y2="51.2001" gradientUnits="userSpaceOnUse">
<stop stop-color="white"/>
<stop offset="1" stop-color="#534FD3"/>
</linearGradient>
<linearGradient id="paint2_linear_1387_193" x1="52.0008" y1="28.8" x2="52.0008" y2="35.2" gradientUnits="userSpaceOnUse">
<stop stop-color="white"/>
<stop offset="1" stop-color="#534FD3"/>
</linearGradient>
<clipPath id="clip0_1387_193">
<rect width="70.4" height="64" fill="white" transform="translate(0.800781)"/>
</clipPath>
</defs>
</svg>
