<svg width="75" height="64" viewBox="0 0 75 64" fill="none" xmlns="http://www.w3.org/2000/svg">
<path d="M73.5 5.33325V18.6666C73.5 19.7275 73.0786 20.7449 72.3284 21.495C71.5783 22.2452 70.5609 22.6666 69.5 22.6666C68.4391 22.6666 67.4217 22.2452 66.6716 21.495C65.9214 20.7449 65.5 19.7275 65.5 18.6666V9.33325H56.1667C55.1058 9.33325 54.0884 8.91183 53.3382 8.16168C52.5881 7.41153 52.1667 6.39412 52.1667 5.33325C52.1667 4.27239 52.5881 3.25497 53.3382 2.50482C54.0884 1.75468 55.1058 1.33325 56.1667 1.33325H69.5C70.5609 1.33325 71.5783 1.75468 72.3284 2.50482C73.0786 3.25497 73.5 4.27239 73.5 5.33325ZM18.8333 54.6666H9.5V45.3333C9.5 44.2724 9.07857 43.255 8.32843 42.5048C7.57828 41.7547 6.56087 41.3333 5.5 41.3333C4.43913 41.3333 3.42172 41.7547 2.67157 42.5048C1.92143 43.255 1.5 44.2724 1.5 45.3333V58.6666C1.5 59.7275 1.92143 60.7449 2.67157 61.495C3.42172 62.2452 4.43913 62.6666 5.5 62.6666H18.8333C19.8942 62.6666 20.9116 62.2452 21.6618 61.495C22.4119 60.7449 22.8333 59.7275 22.8333 58.6666C22.8333 57.6057 22.4119 56.5883 21.6618 55.8382C20.9116 55.088 19.8942 54.6666 18.8333 54.6666ZM69.5 41.3333C68.4391 41.3333 67.4217 41.7547 66.6716 42.5048C65.9214 43.255 65.5 44.2724 65.5 45.3333V54.6666H56.1667C55.1058 54.6666 54.0884 55.088 53.3382 55.8382C52.5881 56.5883 52.1667 57.6057 52.1667 58.6666C52.1667 59.7275 52.5881 60.7449 53.3382 61.495C54.0884 62.2452 55.1058 62.6666 56.1667 62.6666H69.5C70.5609 62.6666 71.5783 62.2452 72.3284 61.495C73.0786 60.7449 73.5 59.7275 73.5 58.6666V45.3333C73.5 44.2724 73.0786 43.255 72.3284 42.5048C71.5783 41.7547 70.5609 41.3333 69.5 41.3333ZM5.5 22.6666C6.56087 22.6666 7.57828 22.2452 8.32843 21.495C9.07857 20.7449 9.5 19.7275 9.5 18.6666V9.33325H18.8333C19.8942 9.33325 20.9116 8.91183 21.6618 8.16168C22.4119 7.41153 22.8333 6.39412 22.8333 5.33325C22.8333 4.27239 22.4119 3.25497 21.6618 2.50482C20.9116 1.75468 19.8942 1.33325 18.8333 1.33325H5.5C4.43913 1.33325 3.42172 1.75468 2.67157 2.50482C1.92143 3.25497 1.5 4.27239 1.5 5.33325V18.6666C1.5 19.7275 1.92143 20.7449 2.67157 21.495C3.42172 22.2452 4.43913 22.6666 5.5 22.6666ZM58.1667 46.1399L39.5 56.8066C38.8959 57.1515 38.2123 57.3329 37.5167 57.3329C36.821 57.3329 36.1374 57.1515 35.5333 56.8066L16.8667 46.1399C16.251 45.7923 15.7385 45.2878 15.3813 44.6776C15.0242 44.0675 14.8351 43.3736 14.8333 42.6666V21.3333C14.8317 20.6295 15.0158 19.9379 15.3669 19.328C15.7181 18.7182 16.2239 18.2118 16.8333 17.8599L35.5 7.19325C36.1041 6.84834 36.7877 6.66692 37.4833 6.66692C38.179 6.66692 38.8626 6.84834 39.4667 7.19325L58.1333 17.8599C58.749 18.2075 59.2615 18.7121 59.6187 19.3222C59.9758 19.9324 60.1649 20.6263 60.1667 21.3333V42.6666C60.1683 43.3703 59.9842 44.062 59.6331 44.6718C59.2819 45.2817 58.7761 45.7881 58.1667 46.1399ZM26.8967 21.3333L37.5 27.3933L48.1033 21.3333L37.5 15.2733L26.8967 21.3333ZM22.8333 40.3333L33.5 46.4266V34.3333L22.8333 28.2266V40.3333ZM52.1667 40.3333V28.2266L41.5 34.3333V46.4533L52.1667 40.3333Z" fill="url(#paint0_linear_1387_200)"/>
<defs>
<linearGradient id="paint0_linear_1387_200" x1="37.5" y1="1.33325" x2="37.5" y2="62.6666" gradientUnits="userSpaceOnUse">
<stop stop-color="white"/>
<stop offset="1" stop-color="#534FD3"/>
</linearGradient>
</defs>
</svg>
