<svg width="31" height="30" viewBox="0 0 31 30" fill="none" xmlns="http://www.w3.org/2000/svg">
<g clip-path="url(#clip0_1387_2549)">
<path fill-rule="evenodd" clip-rule="evenodd" d="M15.5124 0C7.21094 0 0.5 6.76041 0.5 15.124C0.5 21.8094 4.79993 27.4685 10.7651 29.4714C11.5109 29.622 11.784 29.146 11.784 28.7456C11.784 28.395 11.7595 27.1931 11.7595 25.9409C7.58337 26.8425 6.71374 24.138 6.71374 24.138C6.04261 22.3853 5.04822 21.9348 5.04822 21.9348C3.68139 21.0083 5.14778 21.0083 5.14778 21.0083C6.66396 21.1085 7.45954 22.5607 7.45954 22.5607C8.80148 24.8642 10.9639 24.2133 11.8338 23.8126C11.958 22.836 12.3559 22.16 12.7784 21.7845C9.44771 21.4339 5.94336 20.1319 5.94336 14.3225C5.94336 12.6699 6.5395 11.3178 7.48412 10.2663C7.33508 9.89079 6.81299 8.33804 7.63346 6.25983C7.63346 6.25983 8.90104 5.85912 11.7592 7.81227C12.9828 7.48121 14.2448 7.3128 15.5124 7.31138C16.78 7.31138 18.0721 7.48685 19.2654 7.81227C22.1238 5.85912 23.3914 6.25983 23.3914 6.25983C24.2118 8.33804 23.6894 9.89079 23.5404 10.2663C24.5099 11.3178 25.0815 12.6699 25.0815 14.3225C25.0815 20.1319 21.5771 21.4087 18.2215 21.7845C18.7685 22.2602 19.2405 23.1615 19.2405 24.5888C19.2405 26.617 19.2159 28.2447 19.2159 28.7453C19.2159 29.146 19.4894 29.622 20.2349 29.4717C26.2 27.4682 30.4999 21.8094 30.4999 15.124C30.5245 6.76041 23.789 0 15.5124 0Z" fill="white"/>
</g>
<defs>
<clipPath id="clip0_1387_2549">
<rect width="30" height="30" fill="white" transform="translate(0.5)"/>
</clipPath>
</defs>
</svg>
