<svg width="65" height="64" viewBox="0 0 65 64" fill="none" xmlns="http://www.w3.org/2000/svg">
<g clip-path="url(#clip0_1387_183)">
<path d="M17.0196 3.17354C19.746 1.105 23.077 -0.00955346 26.4993 0.0016251C27.6809 -0.0237653 28.8499 0.248725 29.8984 0.793974C30.947 1.33922 31.8414 2.13968 32.4992 3.12155C33.157 2.13968 34.0514 1.33922 35.1 0.793974C36.1485 0.248725 37.3175 -0.0237653 38.499 0.0016251C41.9213 -0.00955346 45.2524 1.105 47.9788 3.17354C50.0787 4.8055 51.6987 7.06544 52.2707 9.79738C53.5827 9.89737 54.7826 10.4414 55.7906 11.2613C57.3186 12.5013 58.4305 14.3613 59.1305 16.3292C60.2265 19.3891 60.5225 23.289 59.3865 26.609C59.6745 26.7449 59.9572 26.9049 60.2345 27.0889C61.3345 27.8209 62.1704 28.8689 62.7864 30.1049C63.9984 32.5248 64.4984 35.9007 64.4984 40.0006C64.4984 44.5645 62.7584 47.6284 60.5505 49.5204C59.328 50.565 57.8876 51.3234 56.3346 51.7403C55.9346 53.9723 54.8146 56.5562 53.0587 58.7481C50.7787 61.6081 47.2428 64 42.4989 64C38.739 64 35.7471 61.9201 33.8032 59.8801C33.3365 59.3947 32.901 58.8804 32.4992 58.3401C32.0974 58.8804 31.6618 59.3947 31.1952 59.8801C29.2513 61.9201 26.2633 64 22.4994 64C17.7556 64 14.2237 61.6081 11.9397 58.7481C10.2992 56.7102 9.17534 54.306 8.66379 51.7403C7.11075 51.3234 5.6704 50.565 4.4479 49.5204C2.23996 47.6284 0.5 44.5605 0.5 40.0006C0.5 35.9007 1.00399 32.5208 2.21196 30.1049C2.78127 28.8907 3.66171 27.8488 4.76389 27.0849C5.03674 26.9106 5.31992 26.753 5.61187 26.6129C4.4759 23.285 4.77189 19.3891 5.86786 16.3292C6.56785 14.3613 7.67982 12.5013 9.20778 11.2613C10.2158 10.4414 11.4157 9.90137 12.7277 9.79738C13.3037 7.06544 14.9196 4.8055 17.0196 3.17354ZM30.4992 10.0014V9.96137L30.4912 9.76138C30.4348 8.71831 30.2273 7.68895 29.8753 6.70546C29.6295 5.96101 29.2052 5.28808 28.6393 4.7455C28.0485 4.23104 27.2819 3.96451 26.4993 4.00152C23.9667 3.98991 21.4999 4.80751 19.4755 6.32946C17.6196 7.77343 16.4996 9.72938 16.4996 12.0013C16.4994 12.318 16.4239 12.6302 16.2794 12.912C16.135 13.1939 15.9256 13.4374 15.6686 13.6225C15.4116 13.8077 15.1143 13.9291 14.8012 13.9769C14.4881 14.0246 14.1682 13.9974 13.8677 13.8973C13.1157 13.6493 12.4437 13.7893 11.7277 14.3653C10.9437 15.0052 10.1798 16.1412 9.63177 17.6732C8.5158 20.8011 8.63179 24.589 10.1638 26.8929C10.3825 27.2211 10.4994 27.6065 10.4997 28.0009H13.4997C15.8866 28.0009 18.1757 28.9491 19.8635 30.6369C21.5513 32.3247 22.4994 34.6138 22.4994 37.0007V38.3407C23.8338 38.8124 24.9585 39.7408 25.6746 40.9615C26.3908 42.1823 26.6523 43.617 26.4129 45.0119C26.1736 46.4069 25.4488 47.6723 24.3667 48.5846C23.2846 49.4969 21.9148 49.9972 20.4995 49.9972C19.0842 49.9972 17.7144 49.4969 16.6323 48.5846C15.5502 47.6723 14.8254 46.4069 14.5861 45.0119C14.3467 43.617 14.6082 42.1823 15.3244 40.9615C16.0405 39.7408 17.1651 38.8124 18.4995 38.3407V37.0007C18.4995 34.2408 16.2596 32.0008 13.4997 32.0008H6.49985C6.26075 32.0003 6.02367 31.957 5.79987 31.8728L5.78787 31.8968C4.99589 33.4768 4.4999 36.1007 4.4999 40.0006C4.4999 43.4365 5.75987 45.3725 7.05183 46.4804C8.4398 47.6724 9.97976 48.0004 10.4997 48.0004C11.0302 48.0004 11.5389 48.2111 11.9139 48.5862C12.289 48.9612 12.4997 49.4699 12.4997 50.0004C12.4997 51.4723 13.2997 54.0443 15.0596 56.2522C16.7756 58.3921 19.2435 60.0001 22.4994 60.0001C24.7394 60.0001 26.7473 58.7481 28.2993 57.1202C29.0633 56.3202 29.6593 55.4922 30.0473 54.8122C30.2234 54.5104 30.3746 54.1947 30.4992 53.8683V22.0011H26.1593C25.6876 23.3355 24.7592 24.4601 23.5385 25.1762C22.3177 25.8924 20.883 26.1539 19.4881 25.9146C18.0931 25.6752 16.8277 24.9504 15.9154 23.8683C15.0031 22.7862 14.5028 21.4165 14.5028 20.0011C14.5028 18.5858 15.0031 17.216 15.9154 16.1339C16.8277 15.0518 18.0931 14.327 19.4881 14.0877C20.883 13.8483 22.3177 14.1098 23.5385 14.826C24.7592 15.5421 25.6876 16.6668 26.1593 18.0012H30.4992V10.0014ZM34.4991 49.9964V53.8643L34.5471 53.9963C34.6218 54.1962 34.7551 54.4669 34.9471 54.8082C35.3431 55.4882 35.9351 56.3162 36.6951 57.1162C38.251 58.7441 40.263 59.9961 42.4989 59.9961C45.7549 59.9961 48.2228 58.3881 49.9387 56.2482C51.6987 54.0403 52.4987 51.4683 52.4987 49.9964C52.4987 49.4659 52.7094 48.9572 53.0844 48.5822C53.4595 48.2071 53.9682 47.9964 54.4986 47.9964C55.0186 47.9964 56.5586 47.6684 57.9465 46.4764C59.2385 45.3685 60.4985 43.4325 60.4985 39.9966C60.4985 36.0967 59.9985 33.4768 59.2105 31.8928C58.9507 31.3007 58.5362 30.7894 58.0105 30.4129C57.5599 30.1257 57.0326 29.982 56.4986 30.0009C56.1368 30.0007 55.7819 29.9024 55.4716 29.7164C55.1613 29.5305 54.9072 29.2638 54.7365 28.9449C54.5657 28.626 54.4847 28.2667 54.5019 27.9054C54.5192 27.544 54.6342 27.1941 54.8346 26.8929C56.3706 24.589 56.4826 20.8011 55.3666 17.6732C54.8186 16.1412 54.0546 15.0012 53.2707 14.3653C52.5547 13.7893 51.8827 13.6453 51.1307 13.8973C50.8302 13.9974 50.5102 14.0246 50.1971 13.9769C49.884 13.9291 49.5868 13.8077 49.3298 13.6225C49.0728 13.4374 48.8634 13.1939 48.719 12.912C48.5745 12.6302 48.499 12.318 48.4988 12.0013C48.4988 9.72938 47.3788 7.77343 45.5189 6.32946C43.4956 4.80834 41.0303 3.99079 38.499 4.00152C37.7165 3.96451 36.9499 4.23104 36.3591 4.7455C35.7918 5.28764 35.366 5.9606 35.1191 6.70546C34.7397 7.75064 34.5304 8.8499 34.4991 9.96137V46.0005H37.4991C40.259 46.0005 42.4989 43.7605 42.4989 41.0006V33.6608C41.1645 33.189 40.0399 32.2607 39.3238 31.0399C38.6076 29.8191 38.3461 28.3844 38.5854 26.9895C38.8248 25.5945 39.5495 24.3291 40.6317 23.4168C41.7138 22.5046 43.0835 22.0042 44.4989 22.0042C45.9142 22.0042 47.284 22.5046 48.3661 23.4168C49.4482 24.3291 50.173 25.5945 50.4123 26.9895C50.6517 28.3844 50.3901 29.8191 49.674 31.0399C48.9579 32.2607 47.8332 33.189 46.4988 33.6608V41.0006C46.4988 43.3875 45.5506 45.6766 43.8629 47.3644C42.1751 49.0522 39.8859 50.0004 37.4991 50.0004L34.4991 49.9964ZM18.4995 20.0011C18.4995 20.5315 18.7103 21.0402 19.0853 21.4153C19.4604 21.7904 19.9691 22.0011 20.4995 22.0011C21.0299 22.0011 21.5386 21.7904 21.9137 21.4153C22.2887 21.0402 22.4994 20.5315 22.4994 20.0011C22.4994 19.4707 22.2887 18.962 21.9137 18.5869C21.5386 18.2119 21.0299 18.0012 20.4995 18.0012C19.9691 18.0012 19.4604 18.2119 19.0853 18.5869C18.7103 18.962 18.4995 19.4707 18.4995 20.0011ZM44.4989 30.0009C45.0293 30.0009 45.538 29.7902 45.9131 29.4151C46.2881 29.04 46.4988 28.5313 46.4988 28.0009C46.4988 27.4705 46.2881 26.9618 45.9131 26.5867C45.538 26.2117 45.0293 26.001 44.4989 26.001C43.9685 26.001 43.4598 26.2117 43.0847 26.5867C42.7096 26.9618 42.4989 27.4705 42.4989 28.0009C42.4989 28.5313 42.7096 29.04 43.0847 29.4151C43.4598 29.7902 43.9685 30.0009 44.4989 30.0009ZM20.4995 42.0006C19.9691 42.0006 19.4604 42.2113 19.0853 42.5863C18.7103 42.9614 18.4995 43.4701 18.4995 44.0005C18.4995 44.5309 18.7103 45.0396 19.0853 45.4147C19.4604 45.7897 19.9691 46.0005 20.4995 46.0005C21.0299 46.0005 21.5386 45.7897 21.9137 45.4147C22.2887 45.0396 22.4994 44.5309 22.4994 44.0005C22.4994 43.4701 22.2887 42.9614 21.9137 42.5863C21.5386 42.2113 21.0299 42.0006 20.4995 42.0006Z" fill="url(#paint0_linear_1387_183)"/>
</g>
<defs>
<linearGradient id="paint0_linear_1387_183" x1="32.4992" y1="0" x2="32.4992" y2="64" gradientUnits="userSpaceOnUse">
<stop stop-color="white"/>
<stop offset="1" stop-color="#534FD3"/>
</linearGradient>
<clipPath id="clip0_1387_183">
<rect width="63.9984" height="64" fill="white" transform="translate(0.5)"/>
</clipPath>
</defs>
</svg>
