<svg width="25" height="18" viewBox="0 0 25 18" fill="none" xmlns="http://www.w3.org/2000/svg">
<path d="M20.8333 2V12H15.625V8C15.625 7.46957 15.4055 6.96086 15.0148 6.58579C14.6241 6.21071 14.0942 6 13.5417 6H8.33333C7.7808 6 7.2509 6.21071 6.8602 6.58579C6.46949 6.96086 6.25 7.46957 6.25 8V12H4.16667V2H20.8333ZM25 16V14H20.8333C21.3859 14 21.9158 13.7893 22.3065 13.4142C22.6972 13.0391 22.9167 12.5304 22.9167 12V2C22.9167 1.46957 22.6972 0.960859 22.3065 0.585786C21.9158 0.210714 21.3859 0 20.8333 0H4.16667C3.61413 0 3.08423 0.210714 2.69353 0.585786C2.30283 0.960859 2.08333 1.46957 2.08333 2V12C2.08333 12.5304 2.30283 13.0391 2.69353 13.4142C3.08423 13.7893 3.61413 14 4.16667 14H0V16H6.25C6.25 16.5304 6.46949 17.0391 6.8602 17.4142C7.2509 17.7893 7.7808 18 8.33333 18H13.5417C14.0942 18 14.6241 17.7893 15.0148 17.4142C15.4055 17.0391 15.625 16.5304 15.625 16H25ZM13.0208 16C13.159 16 13.2914 16.0527 13.3891 16.1464C13.4868 16.2402 13.5417 16.3674 13.5417 16.5C13.5417 16.6326 13.4868 16.7598 13.3891 16.8536C13.2914 16.9473 13.159 17 13.0208 17C12.8827 17 12.7502 16.9473 12.6525 16.8536C12.5549 16.7598 12.5 16.6326 12.5 16.5C12.5 16.3674 12.5549 16.2402 12.6525 16.1464C12.7502 16.0527 12.8827 16 13.0208 16ZM8.85417 16C8.9923 16 9.12478 16.0527 9.22245 16.1464C9.32013 16.2402 9.375 16.3674 9.375 16.5C9.375 16.6326 9.32013 16.7598 9.22245 16.8536C9.12478 16.9473 8.9923 17 8.85417 17C8.71603 17 8.58356 16.9473 8.48588 16.8536C8.38821 16.7598 8.33333 16.6326 8.33333 16.5C8.33333 16.3674 8.38821 16.2402 8.48588 16.1464C8.58356 16.0527 8.71603 16 8.85417 16ZM11.4583 16V17H10.4167V16H11.4583ZM13.5417 8V15H8.33333V8H13.5417Z" fill="white"/>
</svg>
